<?xml version="1.0" encoding="UTF-8"?>
<!-- Generator: visioncortex VTracer 0.6.3 -->
<svg version="1.1" xmlns="http://www.w3.org/2000/svg" width="1280" height="320">
<path d="M0 0 C422.4 0 844.8 0 1280 0 C1280 105.6 1280 211.2 1280 320 C857.6 320 435.2 320 0 320 C0 214.4 0 108.8 0 0 Z " fill="#F9FCFE" transform="translate(0,0)"/>
<path d="M0 0 C0.77 2.42 1.35 4.7 1.86 7.18 C2.02 7.93 2.19 8.67 2.36 9.44 C2.72 11.08 3.08 12.72 3.43 14.36 C4.22 18.04 5.07 21.69 5.91 25.36 C6.81 29.28 7.69 33.2 8.57 37.12 C9.03 39.14 9.49 41.16 9.95 43.18 C10.62 46.14 11.29 49.11 11.95 52.07 C12.26 53.41 12.26 53.41 12.58 54.78 C13.65 59.64 14.22 64.02 14 69 C14.66 69 15.32 69 16 69 C16 69.99 16 70.98 16 72 C16.66 72 17.32 72 18 72 C17.82 71.46 17.63 70.92 17.44 70.37 C16.88 67.35 17.36 65.13 17.97 62.13 C18.21 60.93 18.45 59.73 18.69 58.5 C18.96 57.19 19.23 55.88 19.5 54.56 C19.91 52.5 20.33 50.44 20.74 48.38 C21.03 46.92 21.32 45.46 21.61 44 C22.76 38.26 23.85 32.51 24.93 26.75 C25.08 25.91 25.24 25.06 25.4 24.19 C26.03 20.83 26.66 17.48 27.27 14.12 C27.71 11.78 28.14 9.44 28.58 7.1 C28.78 6.04 28.78 6.04 28.97 4.96 C29.89 0.11 29.89 0.11 31 -1 C33.95 -1.1 36.87 -1.14 39.81 -1.13 C40.7 -1.13 41.58 -1.13 42.49 -1.14 C44.36 -1.14 46.24 -1.13 48.11 -1.13 C50.99 -1.13 53.86 -1.13 56.74 -1.14 C58.56 -1.14 60.37 -1.13 62.19 -1.13 C63.05 -1.13 63.92 -1.14 64.81 -1.14 C70.89 -1.11 70.89 -1.11 72 0 C71.55 9.35 69.23 18.29 67.06 27.36 C66.66 29.07 66.26 30.78 65.85 32.49 C64.79 37 63.72 41.51 62.65 46.02 C61.59 50.46 60.54 54.91 59.5 59.36 C57.84 66.38 56.17 73.41 54.5 80.44 C53.01 86.73 51.52 93.03 50.05 99.32 C49.21 102.89 48.37 106.46 47.54 110.03 C47.14 111.72 46.74 113.41 46.35 115.1 C45.81 117.43 45.26 119.75 44.71 122.08 C44.55 122.77 44.39 123.46 44.23 124.17 C43.11 128.89 43.11 128.89 42 130 C40.57 130.11 39.13 130.15 37.7 130.16 C36.78 130.17 35.87 130.18 34.92 130.19 C33.93 130.19 32.94 130.2 31.91 130.2 C30.9 130.21 29.88 130.21 28.83 130.22 C26.68 130.23 24.53 130.24 22.38 130.24 C19.08 130.25 15.78 130.28 12.48 130.31 C10.39 130.32 8.31 130.32 6.22 130.33 C5.23 130.34 4.24 130.35 3.21 130.37 C2.3 130.36 1.38 130.36 0.43 130.36 C-0.38 130.36 -1.19 130.36 -2.02 130.37 C-2.67 130.25 -3.33 130.12 -4 130 C-5.85 127.22 -6.4 125.9 -7.05 122.76 C-7.32 121.47 -7.32 121.47 -7.6 120.16 C-7.79 119.23 -7.98 118.3 -8.17 117.34 C-8.38 116.37 -8.58 115.4 -8.79 114.4 C-9.22 112.32 -9.65 110.24 -10.08 108.17 C-11.19 102.8 -12.32 97.44 -13.45 92.09 C-13.67 91.04 -13.89 89.99 -14.11 88.9 C-16.57 77.23 -19.23 65.61 -22 54 C-24.32 63.02 -26.38 72.08 -28.36 81.17 C-28.66 82.59 -28.97 84.01 -29.28 85.43 C-30.09 89.11 -30.89 92.8 -31.7 96.49 C-32.66 100.94 -33.64 105.39 -34.61 109.84 C-36.07 116.56 -37.54 123.28 -39 130 C-54.51 130 -70.02 130 -86 130 C-89.38 119.87 -89.38 119.87 -90.39 115.55 C-90.62 114.57 -90.85 113.6 -91.09 112.59 C-91.33 111.56 -91.57 110.53 -91.82 109.46 C-92.08 108.36 -92.34 107.26 -92.61 106.12 C-93.45 102.54 -94.29 98.96 -95.12 95.38 C-95.71 92.89 -96.29 90.4 -96.88 87.92 C-100.63 71.93 -104.35 55.93 -108.02 39.91 C-110.37 29.64 -112.8 19.39 -115.33 9.16 C-115.55 8.25 -115.77 7.33 -116 6.39 C-116.2 5.61 -116.39 4.82 -116.59 4.02 C-117 2 -117 2 -117 -1 C-110.91 -1.07 -104.83 -1.13 -98.74 -1.16 C-96.67 -1.18 -94.59 -1.2 -92.52 -1.23 C-89.55 -1.26 -86.58 -1.28 -83.6 -1.29 C-82.67 -1.31 -81.74 -1.32 -80.78 -1.34 C-79.92 -1.34 -79.06 -1.34 -78.17 -1.34 C-77.41 -1.35 -76.66 -1.35 -75.87 -1.36 C-75.25 -1.24 -74.64 -1.12 -74 -1 C-71.87 2.2 -71.35 4.31 -70.58 8.04 C-70.32 9.29 -70.06 10.53 -69.79 11.82 C-69.51 13.18 -69.24 14.54 -68.96 15.9 C-68.67 17.29 -68.38 18.69 -68.1 20.09 C-67.49 23.01 -66.89 25.94 -66.29 28.87 C-65.53 32.61 -64.76 36.36 -63.98 40.1 C-63.38 42.99 -62.79 45.87 -62.2 48.75 C-61.92 50.14 -61.63 51.52 -61.35 52.9 C-60.95 54.83 -60.55 56.76 -60.16 58.7 C-59.94 59.8 -59.71 60.89 -59.48 62.03 C-59.04 64.75 -58.91 67.25 -59 70 C-58.34 70 -57.68 70 -57 70 C-55.49 62.75 -53.97 55.49 -52.47 48.23 C-51.95 45.77 -51.44 43.31 -50.93 40.85 C-47.05 22.33 -47.05 22.33 -43.55 3.73 C-43 1 -43 1 -42 -1 C-36.5 -1.19 -31 -1.37 -25.5 -1.54 C-23.63 -1.6 -21.76 -1.66 -19.89 -1.72 C-17.2 -1.82 -14.51 -1.9 -11.82 -1.98 C-10.99 -2.01 -10.15 -2.04 -9.29 -2.07 C-3.34 -2.23 -3.34 -2.23 0 0 Z " fill="#006071" transform="translate(438,96)"/>
<path d="M0 0 C1.12 0.01 1.12 0.01 2.27 0.01 C3.04 0.01 3.81 0.01 4.6 0.01 C6.23 0.01 7.86 0.01 9.48 0.02 C11.98 0.03 14.47 0.02 16.97 0 C18.55 0.01 20.13 0.01 21.71 0.01 C22.46 0.01 23.21 0 23.98 0 C29.26 0.05 29.26 0.05 31.49 2.28 C31.73 4.66 31.73 4.66 31.73 7.72 C31.73 8.87 31.73 10.03 31.74 11.22 C31.73 13.13 31.73 13.13 31.72 15.08 C31.71 16.43 31.72 17.78 31.72 19.13 C31.72 22.8 31.71 26.47 31.69 30.14 C31.68 33.98 31.68 37.81 31.68 41.65 C31.67 48.91 31.65 56.18 31.63 63.44 C31.61 71.71 31.6 79.98 31.59 88.24 C31.57 105.26 31.53 122.27 31.49 139.28 C27.25 139.3 23.02 139.32 18.78 139.33 C17.34 139.34 15.9 139.34 14.46 139.35 C12.39 139.37 10.32 139.37 8.25 139.38 C7 139.38 5.75 139.39 4.47 139.39 C1.49 139.28 1.49 139.28 -0.51 138.28 C-1.83 134.4 -2.51 131.39 -2.51 127.28 C-3.38 127.96 -4.25 128.65 -5.14 129.36 C-6.31 130.27 -7.47 131.18 -8.64 132.09 C-9.21 132.54 -9.78 132.99 -10.36 133.46 C-18.31 139.64 -24.88 141.46 -34.89 141.47 C-35.62 141.48 -36.35 141.49 -37.1 141.5 C-48.66 141.53 -58.08 136.91 -66.51 129.28 C-76.5 119.02 -77.73 104.97 -77.81 91.37 C-77.82 89.99 -77.84 88.61 -77.87 87.23 C-78.08 77.59 -76.91 69.35 -73.51 60.28 C-73.06 58.99 -73.06 58.99 -72.6 57.67 C-69.61 49.4 -63.18 43.31 -55.45 39.34 C-43.45 34.5 -29.74 33.88 -17.64 38.65 C-14.42 40.32 -11.51 42.25 -8.51 44.28 C-8.49 43.02 -8.47 41.75 -8.45 40.45 C-8.38 35.78 -8.29 31.11 -8.19 26.44 C-8.16 24.42 -8.12 22.4 -8.09 20.37 C-8.04 17.47 -7.99 14.56 -7.93 11.66 C-7.91 10.75 -7.9 9.84 -7.89 8.91 C-7.87 8.07 -7.85 7.23 -7.83 6.36 C-7.82 5.62 -7.8 4.88 -7.79 4.11 C-7.1 -0.41 -3.81 0.03 0 0 Z " fill="#0A988C" transform="translate(1226.5115966796875,85.72210693359375)"/>
<path d="M0 0 C1.32 -0.02 1.32 -0.02 2.66 -0.04 C11.46 0 19.74 1.79 26.68 7.45 C30.41 11.27 32.99 15.73 35.56 20.38 C36.17 21.42 36.17 21.42 36.78 22.49 C45.19 38.9 43.97 60.05 39.56 77.38 C38.48 80.56 37.2 83.45 35.56 86.38 C35.03 87.37 34.49 88.36 33.94 89.38 C26.95 98.21 19.83 103.56 8.56 105.38 C-6.82 106.84 -16.06 103.89 -29.44 95.38 C-29.44 110.56 -29.44 125.74 -29.44 141.38 C-35.34 141.42 -41.24 141.46 -47.31 141.5 C-50.1 141.53 -50.1 141.53 -52.95 141.56 C-54.42 141.56 -55.9 141.57 -57.37 141.57 C-58.13 141.58 -58.9 141.59 -59.69 141.6 C-61.61 141.6 -63.52 141.5 -65.44 141.38 C-67.44 139.38 -67.44 139.38 -67.69 137.01 C-67.69 136.01 -67.69 135.01 -67.68 133.98 C-67.69 132.83 -67.69 131.69 -67.7 130.51 C-67.69 129.24 -67.69 127.98 -67.68 126.68 C-67.68 125.34 -67.68 124 -67.69 122.66 C-67.69 119.02 -67.68 115.38 -67.67 111.74 C-67.66 107.94 -67.67 104.14 -67.67 100.33 C-67.67 93.95 -67.66 87.56 -67.64 81.17 C-67.63 73.78 -67.62 66.39 -67.62 58.99 C-67.62 51.89 -67.62 44.79 -67.61 37.69 C-67.61 34.66 -67.6 31.63 -67.6 28.61 C-67.6 25.04 -67.6 21.48 -67.59 17.92 C-67.58 15.98 -67.58 14.05 -67.58 12.11 C-67.58 10.97 -67.58 9.82 -67.57 8.64 C-67.57 7.15 -67.57 7.15 -67.57 5.62 C-67.44 3.38 -67.44 3.38 -66.44 2.38 C-62.32 2.16 -58.2 2.19 -54.08 2.19 C-52.01 2.19 -49.94 2.17 -47.87 2.15 C-45.93 2.15 -45.93 2.15 -43.94 2.14 C-42.74 2.14 -41.55 2.14 -40.31 2.13 C-37.44 2.38 -37.44 2.38 -35.44 4.38 C-35.02 6.54 -35.02 6.54 -34.81 9 C-34.74 9.82 -34.66 10.63 -34.59 11.48 C-34.54 12.1 -34.49 12.73 -34.44 13.38 C-33.45 13.71 -32.46 14.03 -31.44 14.38 C-30.76 13.67 -30.08 12.97 -29.38 12.25 C-28.4 11.29 -27.42 10.33 -26.44 9.38 C-25.92 8.86 -25.4 8.34 -24.86 7.81 C-17.6 1.04 -9.67 -0.13 0 0 Z " fill="#0A988C" transform="translate(964.4375,121.625)"/>
<path d="M0 0 C1.47 1.05 1.47 1.05 3 3 C3.33 5.5 3.47 7.75 3.48 10.25 C3.5 10.99 3.51 11.72 3.53 12.48 C3.57 14.91 3.59 17.35 3.61 19.79 C3.63 21.48 3.64 23.18 3.66 24.88 C3.69 28.44 3.71 32.01 3.72 35.57 C3.74 40.12 3.81 44.67 3.89 49.22 C3.95 52.73 3.97 56.24 3.97 59.75 C3.98 61.42 4 63.1 4.04 64.77 C4.37 79.48 4.37 79.48 -1.41 85.92 C-2.91 87.31 -4.44 88.67 -6 90 C-7.5 91.8 -8.98 93.61 -10.44 95.44 C-14.3 100.21 -18.38 104.74 -22.54 109.26 C-24.91 111.9 -27.15 114.61 -29.38 117.38 C-32.76 121.58 -36.31 125.56 -40 129.5 C-44.5 134.31 -48.73 139.25 -52.86 144.39 C-55 147 -57.22 149.5 -59.5 152 C-62.6 155.4 -65.55 158.86 -68.44 162.44 C-72.3 167.21 -76.38 171.74 -80.54 176.25 C-82.93 178.92 -85.19 181.65 -87.44 184.44 C-91.1 188.97 -94.95 193.26 -98.91 197.52 C-102.71 201.62 -106.24 205.92 -109.75 210.27 C-112.92 214.11 -116.28 217.77 -119.65 221.43 C-122.22 224.24 -124.7 227.12 -127.14 230.05 C-128.88 231.88 -130.69 233.48 -132.62 235.12 C-133.57 235.93 -133.57 235.93 -134.53 236.76 C-135.02 237.17 -135.5 237.58 -136 238 C-134.53 220.13 -132.33 202.33 -130 184.56 C-129.4 179.99 -128.82 175.43 -128.27 170.86 C-127.73 166.37 -127.15 161.88 -126.55 157.4 C-126.33 155.71 -126.12 154.03 -125.93 152.34 C-124.63 141.13 -122.4 134.14 -114 126 C-113.27 125.25 -112.53 124.51 -111.78 123.74 C-110.49 122.44 -109.2 121.15 -107.89 119.88 C-105.45 117.45 -103.22 114.87 -100.98 112.27 C-98.53 109.47 -96.02 106.73 -93.5 104 C-90.48 100.72 -87.48 97.43 -84.56 94.06 C-80.94 89.88 -77.17 85.84 -73.4 81.78 C-70.15 78.27 -66.97 74.7 -63.83 71.08 C-61 67.87 -58.09 64.72 -55.19 61.57 C-51.5 57.55 -47.83 53.5 -44.19 49.44 C-41.92 46.91 -39.65 44.39 -37.38 41.88 C-34.82 39.04 -32.3 36.2 -29.81 33.31 C-26.34 29.33 -22.74 25.48 -19.12 21.62 C-9.11 11.19 -9.11 11.19 0 0 Z " fill="#0A988C" transform="translate(289,35)"/>
<path d="M0 0 C2.87 1.38 4.84 2.62 6.99 4.98 C7.53 5.56 8.06 6.14 8.62 6.75 C9.18 7.37 9.74 7.99 10.31 8.62 C10.89 9.26 11.48 9.9 12.08 10.55 C15.52 14.33 18.92 18.14 22.26 22.01 C24.47 24.54 26.74 27.02 29 29.5 C31.81 32.58 34.59 35.66 37.31 38.81 C41.18 43.26 45.22 47.55 49.24 51.86 C52.63 55.5 55.95 59.19 59.2 62.95 C61.55 65.63 63.96 68.25 66.38 70.88 C72.43 77.46 78.46 84.05 84.31 90.81 C88.91 96.09 93.69 101.19 98.44 106.32 C112.69 121.72 112.69 121.72 118 128 C118.95 129.11 118.95 129.11 119.91 130.24 C120.54 131.01 121.17 131.77 121.81 132.56 C122.66 133.59 122.66 133.59 123.52 134.63 C127.85 141.56 128.01 150.47 129.06 158.38 C129.25 159.8 129.44 161.22 129.63 162.64 C130.14 166.38 130.64 170.11 131.13 173.85 C131.73 178.31 132.33 182.77 132.93 187.24 C133.42 190.84 133.9 194.44 134.38 198.05 C135.21 204.22 136.05 210.39 136.95 216.55 C137.1 217.52 137.24 218.49 137.38 219.48 C137.64 221.2 137.9 222.92 138.17 224.64 C138.84 229.15 139.12 233.44 139 238 C134.62 236.37 132.04 233.07 129 229.69 C128.48 229.12 127.96 228.55 127.42 227.96 C125.1 225.41 122.88 222.85 120.75 220.14 C119.18 217.92 119.18 217.92 117 217 C116.56 216.26 116.12 215.52 115.66 214.76 C113.85 211.75 111.78 209.44 109.38 206.88 C105.97 203.19 102.7 199.47 99.56 195.56 C96.34 191.57 92.99 187.75 89.5 184 C85.21 179.39 81.2 174.62 77.25 169.71 C74.91 166.89 72.48 164.19 70 161.5 C65.91 157.05 62.08 152.45 58.28 147.75 C55.93 144.92 53.49 142.21 51 139.5 C47.71 135.92 44.55 132.28 41.5 128.5 C37.61 123.68 33.52 119.1 29.33 114.54 C26.16 111.08 23.07 107.55 20 104 C19.34 103.24 19.34 103.24 18.66 102.46 C17.13 100.68 15.59 98.9 14.06 97.12 C13.35 96.3 13.35 96.3 12.61 95.45 C11.64 94.32 10.69 93.18 9.75 92.03 C8.02 89.95 8.02 89.95 5.97 88.1 C-0.58 81.37 -0.98 75.58 -0.91 66.67 C-0.87 64.95 -0.82 63.24 -0.78 61.52 C-0.77 59.74 -0.75 57.96 -0.75 56.19 C-0.72 51.53 -0.64 46.88 -0.55 42.23 C-0.47 37.47 -0.43 32.71 -0.39 27.95 C-0.31 18.63 -0.17 9.32 0 0 Z " fill="#006071" transform="translate(13,34)"/>
<path d="M0 0 C9.06 9.26 10.59 18.97 10.66 31.56 C10.67 32.56 10.69 33.57 10.7 34.6 C10.76 38.86 10.8 43.12 10.84 47.38 C10.88 50.5 10.92 53.62 10.97 56.75 C10.98 58.2 10.98 58.2 10.98 59.68 C11 60.57 11.01 61.46 11.03 62.38 C11.04 63.56 11.04 63.56 11.05 64.76 C11.15 66.93 11.15 66.93 13.31 68.69 C15.22 69.07 15.22 69.07 17.31 69.19 C21.09 69.47 21.09 69.47 23.31 71.69 C23.81 74.98 23.73 78.3 23.75 81.62 C23.78 82.54 23.82 83.46 23.85 84.41 C23.87 86.93 23.81 89.22 23.31 91.69 C18.17 96.63 10.1 95.87 3.38 95.88 C2.22 95.89 2.22 95.89 1.03 95.91 C-7.88 95.93 -16.48 93.47 -23.19 87.44 C-23.68 86.86 -24.18 86.28 -24.69 85.69 C-29.51 87.08 -33.78 89.17 -38.22 91.47 C-46.21 95.42 -53.79 95.87 -62.56 95.88 C-63.41 95.89 -64.26 95.9 -65.13 95.91 C-73.36 95.93 -80.51 94.99 -87.5 90.38 C-88.39 89.8 -89.29 89.23 -90.21 88.64 C-95.99 84.1 -97.78 79.74 -98.69 72.69 C-99.51 63.57 -97.64 54.47 -92.69 46.69 C-78.42 31.17 -52.98 31.66 -33.5 30.84 C-32.24 30.79 -30.98 30.74 -29.69 30.69 C-29.57 25.44 -29.69 22.13 -32.69 17.69 C-36.26 15.88 -39.21 15.42 -43.19 15.44 C-44.11 15.43 -45.02 15.43 -45.97 15.42 C-49.62 15.78 -52.52 16.74 -55.38 19.06 C-56.81 20.84 -57.7 22.64 -58.69 24.69 C-63.64 24.74 -68.58 24.77 -73.53 24.8 C-75.22 24.81 -76.9 24.82 -78.58 24.84 C-81 24.86 -83.42 24.87 -85.84 24.88 C-86.59 24.89 -87.35 24.9 -88.12 24.91 C-89.98 24.91 -91.84 24.81 -93.69 24.69 C-95.69 22.69 -95.69 22.69 -95.8 20.8 C-94.94 12.82 -92.36 6.49 -86.36 0.99 C-66.53 -14.45 -20.02 -16.42 0 0 Z " fill="#0A988C" transform="translate(1117.6875,131.3125)"/>
<path d="M0 0 C1.02 0.29 2.05 0.58 3.11 0.88 C11.89 3.71 17.17 8.04 21.96 15.88 C25.2 22.49 25.34 28.5 25.41 35.74 C25.43 36.87 25.45 37.99 25.47 39.15 C25.53 42.72 25.58 46.3 25.62 49.88 C25.66 52.3 25.7 54.73 25.74 57.16 C25.84 63.11 25.92 69.05 26 75 C27.05 75.18 27.05 75.18 28.12 75.37 C29.03 75.53 29.94 75.7 30.88 75.88 C31.78 76.04 32.68 76.2 33.62 76.37 C36 77 36 77 38 79 C38.23 81.06 38.23 81.06 38.2 83.57 C38.19 84.47 38.18 85.36 38.18 86.29 C38.15 87.69 38.15 87.69 38.12 89.12 C38.12 90.07 38.11 91.01 38.1 91.99 C38.07 94.33 38.04 96.66 38 99 C26.9 103.91 13.82 105.23 2.14 101.05 C-0.95 99.53 -3.57 97.6 -6.24 95.43 C-8.36 93.71 -10.62 92.34 -13 91 C-13.26 91.62 -13.53 92.24 -13.8 92.88 C-16.74 98.08 -24.44 99.6 -29.81 101.25 C-41.59 104.43 -55.68 105 -67 100 C-67.72 99.7 -68.45 99.4 -69.2 99.09 C-74.96 96.47 -78.68 93.36 -81.81 87.75 C-84.81 78.68 -84.38 66.59 -80.18 58 C-75.43 49.95 -68.82 45.25 -59.85 42.77 C-48.58 39.94 -37.6 38.84 -26 38.44 C-24.84 38.39 -23.69 38.35 -22.5 38.31 C-19.66 38.2 -16.83 38.1 -14 38 C-13.86 32.99 -13.91 29.66 -16.62 25.45 C-19.23 22.71 -22.39 22.22 -26 22 C-33.39 22.11 -33.39 22.11 -40 25 C-41.04 26.98 -42.04 28.98 -43 31 C-48.11 31.02 -53.22 31.04 -58.33 31.05 C-60.07 31.06 -61.8 31.07 -63.54 31.08 C-66.04 31.09 -68.53 31.09 -71.03 31.1 C-71.81 31.1 -72.59 31.11 -73.4 31.11 C-75.27 31.11 -77.13 31.06 -79 31 C-80.53 29.47 -80.24 28.07 -80.31 25.94 C-80.19 19.61 -78.3 15.38 -73.91 10.83 C-66.72 4.27 -60.41 1.2 -51 -1 C-50.16 -1.21 -49.32 -1.42 -48.46 -1.63 C-32.94 -4.88 -15.23 -4.33 0 0 Z " fill="#006071" transform="translate(601,126)"/>
<path d="M0 0 C8.2 7.53 15.13 19.75 16 31 C16.23 36.67 16.27 42.33 16 48 C14.09 49.91 10.63 49.18 8.09 49.21 C7.37 49.22 6.65 49.23 5.91 49.24 C3.51 49.27 1.11 49.29 -1.29 49.32 C-2.94 49.34 -4.6 49.36 -6.26 49.38 C-10.63 49.43 -15 49.48 -19.37 49.53 C-23.83 49.58 -28.29 49.64 -32.74 49.69 C-41.5 49.8 -50.25 49.9 -59 50 C-58.88 51.43 -58.74 52.86 -58.6 54.29 C-58.49 55.49 -58.49 55.49 -58.38 56.71 C-57.57 61.59 -54.87 64.24 -51.25 67.38 C-47.35 69.41 -43.25 69.39 -38.94 69.44 C-37.91 69.45 -37.91 69.45 -36.86 69.47 C-32.2 69.39 -28.97 68.41 -25 66 C-22.14 63.04 -21.25 59.87 -20 56 C-15.03 55.98 -10.07 55.96 -5.1 55.95 C-3.41 55.94 -1.72 55.93 -0.03 55.92 C2.4 55.91 4.82 55.91 7.25 55.9 C8.39 55.89 8.39 55.89 9.55 55.89 C11.37 55.89 13.18 55.94 15 56 C16 57 16 57 16.31 60.5 C16.16 70.14 9.84 78.07 3.38 84.69 C-1.19 88.21 -6.62 90.1 -12 92 C-12.91 92.32 -13.82 92.65 -14.75 92.98 C-33.01 98.27 -55.81 96.86 -72.81 88.31 C-85.54 80.67 -93.27 72.43 -97 58 C-99.85 42.71 -98.97 23.91 -90.39 10.49 C-81.27 -1.69 -68.27 -8.31 -53.33 -10.68 C-35.1 -12.41 -15.01 -11.75 0 0 Z " fill="#006071" transform="translate(862,134)"/>
<path d="M0 0 C1.65 0 3.29 0.01 4.94 0.02 C6.23 0.02 6.23 0.02 7.55 0.02 C10.33 0.03 13.1 0.04 15.87 0.05 C17.74 0.06 19.62 0.06 21.49 0.06 C26.1 0.08 30.7 0.09 35.31 0.11 C38.17 6.17 40.41 12.21 42.25 18.64 C42.64 19.96 42.64 19.96 43.03 21.3 C43.56 23.14 44.1 24.98 44.63 26.82 C45.43 29.61 46.24 32.4 47.06 35.19 C47.58 36.99 48.11 38.78 48.63 40.58 C48.99 41.82 48.99 41.82 49.35 43.07 C50.88 48.39 52.15 53.71 53.31 59.11 C55.28 58.74 55.28 58.74 57.31 58.11 C58.39 56.35 58.39 56.35 58.98 54.08 C59.25 53.22 59.52 52.36 59.79 51.47 C60.06 50.53 60.34 49.59 60.62 48.61 C61.06 47.16 61.06 47.16 61.51 45.67 C64.39 36.08 67.08 26.44 69.73 16.79 C70.78 13 71.84 9.21 72.95 5.44 C73.18 4.63 73.42 3.82 73.67 2.99 C74.31 1.11 74.31 1.11 75.31 0.11 C77.88 -0.01 80.42 -0.08 82.99 -0.09 C83.76 -0.1 84.53 -0.1 85.33 -0.11 C86.96 -0.12 88.59 -0.12 90.23 -0.13 C92.73 -0.14 95.23 -0.17 97.74 -0.2 C99.32 -0.21 100.91 -0.21 102.49 -0.21 C103.62 -0.23 103.62 -0.23 104.77 -0.25 C106.88 -0.24 106.88 -0.24 110.31 0.11 C111.3 1.6 111.3 1.6 112.31 3.11 C111.87 4.93 111.87 4.93 110.87 7.11 C108.74 12.02 106.87 16.97 105.06 21.99 C102.71 28.41 100.26 34.78 97.68 41.11 C93.16 52.25 89.03 63.53 84.87 74.8 C77.4 95.08 77.4 95.08 74.31 101.11 C68.66 101.19 63.02 101.24 57.38 101.28 C55.46 101.29 53.54 101.31 51.62 101.34 C48.86 101.38 46.11 101.39 43.35 101.41 C42.49 101.42 41.63 101.44 40.74 101.45 C39.94 101.45 39.14 101.45 38.32 101.45 C37.26 101.46 37.26 101.46 36.19 101.47 C33.72 101 32.86 100.04 31.31 98.11 C30.22 95.67 30.22 95.67 29.22 92.77 C28.85 91.71 28.47 90.65 28.09 89.55 C27.71 88.44 27.32 87.32 26.93 86.18 C24.36 78.77 21.66 71.48 18.6 64.26 C15.88 57.65 13.53 50.9 11.11 44.18 C8.38 36.62 5.54 29.13 2.4 21.73 C1 18.39 -0.24 15.03 -1.44 11.61 C-1.85 10.47 -2.26 9.32 -2.68 8.14 C-4.3 3.3 -4.3 3.3 -4.69 1.11 C-3.69 0.11 -3.69 0.11 0 0 Z " fill="#006071" transform="translate(644.693603515625,124.886474609375)"/>
<path d="M0 0 C4.33 0.5 6.24 1.76 9.25 4.86 C10.02 5.65 10.8 6.43 11.59 7.24 C12.39 8.07 13.18 8.9 14 9.75 C14.79 10.56 15.59 11.37 16.41 12.21 C17.94 13.79 19.48 15.36 21.01 16.94 C23.31 19.32 25.65 21.66 28 24 C29.16 25.17 30.33 26.35 31.49 27.52 C37.32 33.4 43.1 39.22 49.41 44.58 C51.96 46.86 53.99 49.24 56 52 C56 52.99 56 53.98 56 55 C43.27 55.07 30.55 55.12 17.82 55.16 C11.91 55.17 6.01 55.19 0.1 55.23 C-5.6 55.26 -11.3 55.28 -17 55.28 C-19.18 55.29 -21.36 55.3 -23.53 55.32 C-26.58 55.34 -29.62 55.34 -32.66 55.34 C-34.02 55.36 -34.02 55.36 -35.41 55.37 C-36.65 55.37 -36.65 55.37 -37.92 55.36 C-39 55.36 -39 55.36 -40.1 55.37 C-42.53 54.9 -43.43 53.86 -45 52 C-44.6 51.62 -44.2 51.24 -43.79 50.86 C-39.24 46.46 -35.28 41.74 -31.31 36.82 C-29.15 34.18 -26.92 31.64 -24.62 29.12 C-16.07 19.72 -8.01 9.87 0 0 Z " fill="#AC1124" transform="translate(234,220)"/>
<path d="M0 0 C1.44 1.29 1.44 1.29 3 3.19 C3.61 3.92 4.22 4.64 4.85 5.39 C5.56 6.25 6.27 7.11 7 8 C8.79 10.13 10.58 12.25 12.38 14.38 C12.85 14.94 13.32 15.5 13.81 16.07 C16.68 19.48 19.62 22.83 22.62 26.12 C27.28 31.26 31.64 36.61 36 42 C37.68 44.06 39.37 46.13 41.06 48.19 C42.38 49.79 43.69 51.4 45 53 C44.5 53.99 44.5 53.99 44 55 C31.4 55.07 18.81 55.12 6.21 55.16 C0.37 55.17 -5.48 55.19 -11.33 55.23 C-16.97 55.26 -22.61 55.28 -28.25 55.28 C-30.41 55.29 -32.56 55.3 -34.72 55.32 C-37.73 55.34 -40.74 55.34 -43.76 55.34 C-45.1 55.36 -45.1 55.36 -46.47 55.37 C-47.29 55.37 -48.11 55.37 -48.96 55.36 C-50.03 55.36 -50.03 55.36 -51.12 55.37 C-53.53 54.9 -54.44 53.85 -56 52 C-50.6 46.57 -45.19 41.14 -39.78 35.72 C-37.94 33.88 -36.1 32.04 -34.27 30.19 C-31.62 27.53 -28.97 24.87 -26.31 22.21 C-25.5 21.4 -24.69 20.58 -23.85 19.74 C-19.62 15.5 -15.31 11.42 -10.75 7.54 C-8.96 5.96 -7.33 4.29 -5.69 2.56 C-3 0 -3 0 0 0 Z " fill="#830E1A" transform="translate(71,220)"/>
<path d="M0 0 C0.99 0.33 1.98 0.66 3 1 C3 1.99 3 2.98 3 4 C3.66 4 4.32 4 5 4 C5.22 13.66 5.43 23.32 5.6 32.97 C5.68 37.46 5.77 41.94 5.87 46.43 C5.98 50.76 6.06 55.09 6.13 59.42 C6.16 61.07 6.19 62.72 6.24 64.37 C6.3 66.69 6.33 69 6.36 71.32 C6.4 73.3 6.4 73.3 6.44 75.31 C5.75 81.07 2.9 85.28 -0.92 89.61 C-1.45 90.22 -1.97 90.82 -2.52 91.44 C-3.34 92.37 -3.34 92.37 -4.19 93.31 C-4.76 93.97 -5.34 94.62 -5.93 95.3 C-9.88 99.78 -13.89 104.2 -17.9 108.62 C-20.13 111.15 -22.26 113.75 -24.38 116.38 C-28.06 120.93 -31.93 125.23 -35.91 129.52 C-39.71 133.63 -43.24 137.92 -46.75 142.29 C-49.09 145.11 -51.52 147.81 -54 150.5 C-57.29 154.08 -60.45 157.72 -63.5 161.5 C-67.34 166.26 -71.4 170.76 -75.54 175.25 C-77.93 177.92 -80.19 180.65 -82.44 183.44 C-86.1 187.97 -89.95 192.26 -93.91 196.52 C-97.71 200.63 -101.24 204.92 -104.75 209.29 C-107.88 213.06 -111.2 216.63 -114.52 220.23 C-117.8 223.89 -120.87 227.72 -123.95 231.55 C-125.72 233.66 -127.52 235.59 -129.5 237.5 C-132.19 239.81 -132.19 239.81 -133 243 C-135.06 243.38 -135.06 243.38 -138 243 C-140.54 241.23 -142.73 239.11 -145 237 C-145.91 236.32 -146.81 235.64 -147.75 234.94 C-150.24 232.79 -151.38 230.85 -153 228 C-157.99 220.86 -163.4 214.07 -170.12 208.5 C-173.54 205.62 -175.58 202.72 -177.77 198.86 C-179.7 195.95 -182.28 194.15 -185 192 C-185 191.34 -185 190.68 -185 190 C-186.62 188.44 -186.62 188.44 -188.69 186.81 C-192.54 183.54 -195.23 180.19 -198 176 C-201.77 170.46 -205.88 166.23 -210.96 161.87 C-213.53 159.51 -215.2 156.97 -217 154 C-220.89 148.13 -225.43 143.72 -230.74 139.1 C-233.36 136.66 -235.13 134.04 -237 131 C-237.89 130.11 -238.77 129.23 -239.69 128.31 C-242 126 -242 126 -243 123 C-244.66 121.39 -244.66 121.39 -246.69 119.81 C-250.85 116.29 -253.84 112.42 -257 108 C-259.27 105.1 -261.64 102.36 -264.25 99.75 C-276.42 87.58 -276.42 87.58 -277.06 82.88 C-277.04 81.93 -277.02 80.98 -277 80 C-273.01 83.88 -269.36 87.96 -265.75 92.19 C-261.96 96.59 -258.16 100.96 -254.25 105.25 C-251.24 108.56 -248.38 111.96 -245.56 115.44 C-241.7 120.21 -237.63 124.73 -233.47 129.25 C-230.27 132.81 -227.29 136.53 -224.28 140.25 C-221.93 143.08 -219.49 145.79 -217 148.5 C-213.71 152.08 -210.55 155.72 -207.5 159.5 C-203.61 164.32 -199.52 168.9 -195.33 173.46 C-189.78 179.51 -184.49 185.79 -179.2 192.07 C-174.31 197.86 -169.23 203.47 -164.11 209.07 C-160 213.67 -160 213.67 -160 217 C-159.43 217.23 -158.86 217.47 -158.27 217.71 C-155.47 219.3 -153.8 221.2 -151.69 223.62 C-150.91 224.51 -150.13 225.4 -149.32 226.32 C-147.86 228.01 -146.39 229.71 -144.93 231.4 C-144.31 232.12 -143.7 232.83 -143.06 233.56 C-142.52 234.2 -141.97 234.84 -141.41 235.5 C-140.05 237.12 -140.05 237.12 -138 238 C-138.44 234.6 -138.87 231.21 -139.31 227.81 C-139.43 226.89 -139.55 225.97 -139.67 225.02 C-140.64 217.55 -141.69 210.09 -142.76 202.63 C-143.79 195.5 -144.79 188.36 -145.79 181.22 C-146.01 179.61 -146.01 179.61 -146.25 177.95 C-146.86 173.52 -147.48 169.09 -148.1 164.66 C-148.56 161.37 -149.02 158.08 -149.48 154.79 C-149.62 153.79 -149.75 152.79 -149.9 151.76 C-150.54 147.16 -151.2 142.58 -152 138 C-151.34 137.67 -150.68 137.34 -150 137 C-146.73 142.84 -145.27 147.6 -144.62 154.23 C-144.48 155.53 -144.48 155.53 -144.33 156.85 C-144.02 159.63 -143.73 162.41 -143.44 165.19 C-143.12 168.05 -142.8 170.9 -142.48 173.76 C-142.27 175.63 -142.07 177.5 -141.86 179.36 C-141.03 186.88 -140.02 194.37 -138.88 201.85 C-138.12 206.97 -137.58 212.06 -137.31 217.23 C-137.21 217.82 -137.1 218.4 -137 219 C-136.34 219.33 -135.68 219.66 -135 220 C-135.33 225.94 -135.66 231.88 -136 238 C-129.65 231.81 -123.77 225.69 -118.25 218.75 C-115.92 215.9 -113.49 213.2 -111 210.5 C-107.73 206.94 -104.59 203.33 -101.56 199.56 C-97.9 195.03 -94.05 190.74 -90.09 186.48 C-86.29 182.37 -82.76 178.08 -79.25 173.71 C-76.91 170.89 -74.48 168.19 -72 165.5 C-67.89 161.03 -64.03 156.41 -60.21 151.68 C-57.33 148.19 -54.29 144.86 -51.24 141.52 C-48.97 138.97 -46.82 136.35 -44.69 133.69 C-40.8 128.87 -36.67 124.35 -32.45 119.84 C-28.5 115.61 -24.84 111.19 -21.21 106.68 C-18.11 102.92 -14.8 99.37 -11.5 95.79 C-8.11 92 -4.91 88.08 -1.71 84.12 C0 82 0 82 1 81 C1.1 78.62 1.14 76.26 1.13 73.88 C1.13 73.14 1.13 72.39 1.13 71.62 C1.14 69.15 1.14 66.67 1.13 64.2 C1.13 62.48 1.13 60.77 1.14 59.05 C1.14 55.45 1.14 51.85 1.13 48.25 C1.12 43.63 1.13 39.01 1.13 34.4 C1.14 30.85 1.14 27.3 1.13 23.76 C1.13 22.06 1.13 20.35 1.14 18.65 C1.14 16.27 1.13 13.89 1.13 11.51 C1.13 10.45 1.13 10.45 1.14 9.37 C1.12 6.1 1.01 3.13 0 0 Z " fill="#AFBABC" transform="translate(290,34)"/>
<path d="M0 0 C2.87 1.38 4.84 2.62 6.99 4.98 C7.53 5.56 8.06 6.14 8.62 6.75 C9.18 7.37 9.74 7.99 10.31 8.62 C10.89 9.26 11.48 9.9 12.08 10.55 C15.52 14.33 18.92 18.14 22.26 22.01 C24.47 24.54 26.74 27.02 29 29.5 C31.81 32.58 34.59 35.66 37.31 38.81 C41.18 43.26 45.22 47.55 49.24 51.86 C52.63 55.5 55.95 59.19 59.2 62.95 C61.55 65.63 63.96 68.25 66.38 70.88 C72.43 77.46 78.46 84.05 84.31 90.81 C88.91 96.09 93.69 101.19 98.44 106.32 C112.69 121.72 112.69 121.72 118 128 C118.95 129.11 118.95 129.11 119.91 130.24 C125.07 136.53 127.41 141.69 127 150 C125.86 147.77 124.79 145.52 123.77 143.23 C120.68 136.49 117.49 130.93 111 127 C110.01 127 109.02 127 108 127 C105.77 124.99 105.77 124.99 103.38 122.31 C102.58 121.44 101.78 120.57 100.96 119.68 C98.91 116.87 98.66 115.32 98 112 C96.06 109.25 96.06 109.25 93.62 106.69 C92.83 105.8 92.04 104.92 91.23 104.01 C89.13 101.66 89.13 101.66 86 102 C84.27 100.09 84.27 100.09 82.38 97.5 C78.91 92.96 75.22 89.37 70.79 85.79 C68.78 83.78 68.52 82.73 68 80 C65.22 74.42 61.89 70.77 57 67 C56.11 66.07 55.23 65.14 54.31 64.19 C52.17 61.66 52.17 61.66 49 62 C46.81 59.73 46.81 59.73 44.44 56.75 C43.65 55.78 42.87 54.8 42.06 53.8 C38 48.28 38 48.28 38 45 C36.63 43.35 35.21 41.76 33.75 40.19 C25 30.74 25 30.74 25 28 C24.45 27.78 23.9 27.57 23.34 27.35 C19.66 25.23 17 22.01 14.15 18.9 C10.92 15.51 9.86 14.97 5 14 C5 20.93 5 27.86 5 35 C5.33 35 5.66 35 6 35 C6 39.29 6 43.58 6 48 C5.67 48 5.34 48 5 48 C4.98 52.16 4.96 56.33 4.95 60.49 C4.94 61.9 4.93 63.32 4.92 64.73 C4.91 66.77 4.91 68.81 4.9 70.85 C4.89 72.69 4.89 72.69 4.89 74.56 C4.99 77.8 5.39 80.82 6 84 C6.66 84 7.32 84 8 84 C9.82 86.17 11.55 88.36 13.25 90.62 C16.11 94.42 18.94 98.03 22.36 101.34 C25 104 25 104 25 106 C25.66 106 26.32 106 27 106 C28.38 107.58 28.38 107.58 30 109.81 C34.32 115.54 39.15 120.73 44 126 C45.38 127.51 46.76 129.03 48.12 130.56 C48.68 131.18 49.24 131.8 49.82 132.44 C51 134 51 134 51 136 C51.66 136 52.32 136 53 136 C54.12 137.33 54.12 137.33 55.44 139.25 C58.16 143.01 61.15 146.43 64.31 149.81 C68.68 154.5 72.79 159.34 76.81 164.34 C79.03 167.03 81.33 169.61 83.69 172.19 C87.41 176.27 90.8 180.5 94 185 C93.34 185.66 92.68 186.32 92 187 C87.75 182.18 83.55 177.32 79.38 172.44 C74.56 166.81 69.72 161.21 64.87 155.62 C61.14 151.33 57.44 147.01 53.75 142.69 C50.33 138.68 46.86 134.71 43.31 130.81 C40.3 127.5 37.43 124.11 34.62 120.62 C31.38 116.61 28.01 112.78 24.5 109 C20.27 104.45 16.24 99.8 12.41 94.9 C10.07 91.98 10.07 91.98 7.41 89.49 C0.97 82.95 -1.06 78.08 -1.16 68.9 C-1.13 66.38 -1.06 63.85 -0.98 61.33 C-0.96 59.55 -0.94 57.78 -0.93 56 C-0.9 51.36 -0.8 46.73 -0.69 42.09 C-0.58 37.35 -0.54 32.6 -0.49 27.85 C-0.38 18.57 -0.21 9.28 0 0 Z " fill="#046475" transform="translate(13,34)"/>
<path d="M0 0 C5.05 2.63 7.98 6.73 10 12 C11.09 16.28 11.18 20.49 11.19 24.88 C11.2 25.56 11.21 26.24 11.22 26.94 C11.24 33.45 10.1 39.77 6 45 C0.69 48.93 -3.46 49.81 -10 49 C-14.1 47.88 -17.07 46.08 -20 43 C-24.92 33.36 -24.36 20.39 -21.31 10.25 C-19.67 5.97 -18.17 3.25 -14 1 C-9.33 -0.56 -4.86 -0.71 0 0 Z " fill="#F9FCFE" transform="translate(1209,150)"/>
<path d="M0 0 C4.84 2.87 7.2 6.77 9 12 C9.43 16.1 9.37 20.2 9.38 24.31 C9.4 25.42 9.42 26.52 9.45 27.65 C9.47 34.59 8.73 39.11 5 45 C0.91 48.84 -3.23 49.35 -8.65 49.28 C-13.6 48.69 -16.86 46.17 -20.31 42.62 C-23.93 37.01 -24.36 31.68 -24.31 25.19 C-24.31 24.39 -24.3 23.59 -24.3 22.77 C-24.15 15.41 -23.38 9.79 -18.5 4.06 C-12.59 -0.81 -7.51 -1.19 0 0 Z " fill="#FAFDFF" transform="translate(959,150)"/>
<path d="M0 0 C3.99 3.88 7.64 7.96 11.25 12.19 C15.04 16.59 18.84 20.96 22.75 25.25 C25.76 28.56 28.62 31.96 31.44 35.44 C35.3 40.21 39.37 44.73 43.53 49.25 C46.73 52.81 49.71 56.53 52.72 60.25 C55.07 63.08 57.51 65.79 60 68.5 C63.29 72.08 66.45 75.72 69.5 79.5 C73.39 84.32 77.48 88.9 81.67 93.46 C87.22 99.51 92.51 105.79 97.8 112.07 C102.69 117.86 107.77 123.47 112.89 129.07 C117 133.67 117 133.67 117 137 C117.57 137.23 118.14 137.47 118.73 137.71 C121.53 139.3 123.2 141.2 125.31 143.62 C126.1 144.52 126.88 145.41 127.69 146.32 C129.13 147.99 130.57 149.66 132 151.33 C132.6 152.03 133.2 152.72 133.81 153.44 C134.33 154.05 134.86 154.67 135.39 155.31 C138.04 158.1 140.34 159.78 144 161 C144 161.66 144 162.32 144 163 C141.94 163.38 141.94 163.38 139 163 C136.46 161.23 134.27 159.11 132 157 C131.09 156.32 130.19 155.64 129.25 154.94 C126.76 152.79 125.62 150.85 124 148 C119.01 140.86 113.6 134.07 106.88 128.5 C103.46 125.62 101.42 122.72 99.23 118.86 C97.3 115.95 94.72 114.15 92 112 C92 111.34 92 110.68 92 110 C90.38 108.44 90.38 108.44 88.31 106.81 C84.46 103.54 81.77 100.19 79 96 C75.23 90.46 71.12 86.23 66.04 81.87 C63.47 79.51 61.8 76.97 60 74 C56.11 68.13 51.57 63.72 46.26 59.1 C43.64 56.66 41.87 54.04 40 51 C39.11 50.11 38.23 49.23 37.31 48.31 C35 46 35 46 34 43 C32.34 41.39 32.34 41.39 30.31 39.81 C26.15 36.29 23.16 32.42 20 28 C17.73 25.1 15.36 22.36 12.75 19.75 C0.58 7.58 0.58 7.58 -0.06 2.88 C-0.04 1.93 -0.02 0.98 0 0 Z " fill="#CFD9DA" transform="translate(13,114)"/>
<path d="M0 0 C0.34 4.84 0.52 8.8 -1.44 13.31 C-6.38 18.5 -11.38 21.27 -18.62 21.56 C-23.84 21.28 -27 20.39 -31 17 C-32.29 13.07 -32.46 11.05 -30.81 7.25 C-24.63 -0.42 -9.06 -4.53 0 0 Z " fill="#FAFDFF" transform="translate(588,184)"/>
<path d="M0 0 C0.57 12.07 0.57 12.07 -3 16 C-9.85 21.14 -15.61 21.78 -24 21 C-27.07 20.05 -28.45 19.1 -31 17 C-32.12 14.62 -32.12 14.62 -32 12 C-30.24 7.59 -28.39 4.07 -23.95 2.09 C-6.68 -3.34 -6.68 -3.34 0 0 Z " fill="#F9FCFE" transform="translate(1089,182)"/>
<path d="M0 0 C0 4 -1.36 4.81 -4.06 7.69 C-4.89 8.58 -5.72 9.48 -6.57 10.4 C-7.77 11.69 -7.77 11.69 -9 13 C-12.71 17.15 -16.32 21.37 -19.9 25.63 C-23.89 30.38 -27.92 35.06 -32.12 39.62 C-36.1 43.95 -39.83 48.41 -43.52 52.98 C-50.04 60.92 -56.84 68.65 -63.75 76.25 C-66.76 79.56 -69.62 82.96 -72.44 86.44 C-76.3 91.21 -80.37 95.73 -84.53 100.25 C-87.75 103.83 -90.76 107.57 -93.79 111.32 C-95.96 113.95 -98.2 116.48 -100.5 119 C-103.61 122.42 -106.59 125.91 -109.5 129.5 C-121.43 144.21 -121.43 144.21 -125 146 C-132.22 146.58 -132.22 146.58 -135.5 144.12 C-137 142 -137 142 -137 140 C-134.53 141.15 -132.95 142.05 -131 144 C-128.43 144.65 -128.43 144.65 -126 145 C-125.9 144.4 -125.79 143.81 -125.69 143.19 C-124.88 140.63 -123.97 139.72 -122 137.94 C-118.97 135.04 -116.31 132.02 -113.69 128.75 C-110.57 124.88 -107.37 121.15 -104 117.5 C-100.74 113.96 -97.63 110.37 -94.62 106.62 C-91.24 102.42 -87.69 98.44 -84 94.5 C-79.5 89.69 -75.27 84.75 -71.14 79.61 C-69 77 -66.78 74.5 -64.5 72 C-61.4 68.6 -58.45 65.14 -55.56 61.56 C-51.7 56.79 -47.63 52.27 -43.47 47.75 C-40.28 44.2 -37.31 40.5 -34.31 36.79 C-31 32.8 -27.5 29.01 -23.97 25.21 C-21.97 23.16 -21.97 23.16 -21 21 C-20.29 20.62 -19.58 20.24 -18.85 19.84 C-14.95 17.32 -12.34 14.05 -9.38 10.5 C-8.24 9.16 -7.1 7.81 -5.96 6.47 C-5.46 5.88 -4.97 5.28 -4.45 4.67 C-3.03 3.04 -1.55 1.51 0 0 Z " fill="#EEF5F5" transform="translate(283,132)"/>
<path d="M0 0 C3.38 3.62 5.43 6.63 5.88 11.62 C5.62 13.81 5.62 13.81 4.62 14.81 C2.2 14.93 -0.2 14.98 -2.62 14.98 C-3.35 14.98 -4.07 14.99 -4.82 14.99 C-6.36 15 -7.9 15 -9.44 15 C-11.8 15 -14.16 15.02 -16.52 15.04 C-18.01 15.04 -19.5 15.04 -21 15.04 C-21.7 15.05 -22.41 15.06 -23.14 15.06 C-28.15 15.04 -28.15 15.04 -30.38 12.81 C-30 9.69 -30 9.69 -29.38 6.81 C-28.72 6.81 -28.05 6.81 -27.38 6.81 C-27.27 6.21 -27.17 5.62 -27.06 5 C-26.25 2.42 -25.49 1.48 -23.38 -0.19 C-16.31 -3.63 -6.62 -5.12 0 0 Z " fill="#F7FAFC" transform="translate(833.375,150.1875)"/>
<path d="M0 0 C5.73 1.33 8.39 3.98 12.12 8.25 C12.64 8.81 13.15 9.37 13.68 9.95 C16 12.54 18.04 15.06 19.94 17.99 C22.51 21.75 25.55 24.72 28.81 27.88 C33.28 32.26 37.63 36.66 41.67 41.46 C43.12 43.19 43.12 43.19 45.44 45.31 C47 47 47 47 47 50 C47.66 50 48.32 50 49 50 C50.29 51.5 51.5 53.05 52.69 54.62 C55.64 58.42 58.56 61.51 62.29 64.52 C65.55 67.34 68.22 70.71 71 74 C72.14 75.29 73.29 76.58 74.44 77.88 C76.93 80.71 79.26 83.63 81.56 86.62 C85.08 91.08 88.95 95.03 93 99 C97.7 103.61 102 108.27 106.01 113.51 C108.37 116.47 110.92 119.23 113.5 122 C116.95 125.73 120.36 129.48 123.62 133.38 C124.26 134.13 124.89 134.88 125.54 135.65 C127.27 138.43 127.66 140.76 128 144 C127.35 143.12 127.35 143.12 126.69 142.22 C121.71 135.68 115.94 129.72 110.4 123.65 C108.43 121.48 106.49 119.28 104.56 117.06 C101.68 113.74 98.72 110.49 95.75 107.25 C95.28 106.74 94.81 106.23 94.33 105.7 C91.98 103.15 89.63 100.6 87.27 98.05 C81.77 92.11 76.45 86.05 71.21 79.87 C68.14 76.27 64.97 72.85 61.56 69.55 C59.24 67.25 57.15 64.77 55.02 62.3 C52.56 59.49 50.03 56.75 47.5 54 C44.48 50.72 41.48 47.43 38.56 44.06 C35.45 40.47 32.23 36.98 29 33.5 C25.22 29.42 21.48 25.31 17.85 21.09 C15.89 18.87 13.87 16.7 11.85 14.53 C7.55 9.89 3.49 5.29 0 0 Z " fill="#E5EEEE" transform="translate(16,35)"/>
<path d="M0 0 C12.74 0.08 25.49 0.18 38.23 0.29 C44.15 0.34 50.06 0.38 55.98 0.42 C61.68 0.46 67.39 0.5 73.1 0.56 C75.28 0.58 77.46 0.59 79.64 0.6 C82.69 0.62 85.73 0.65 88.78 0.68 C90.14 0.68 90.14 0.68 91.53 0.69 C97.77 0.77 97.77 0.77 100 3 C95.32 5.38 91.1 5.27 85.99 5.23 C85.09 5.23 84.19 5.23 83.27 5.23 C80.31 5.23 77.35 5.21 74.39 5.2 C72.33 5.19 70.28 5.19 68.22 5.19 C62.82 5.18 57.41 5.16 52.01 5.14 C46.49 5.12 40.98 5.11 35.46 5.1 C24.64 5.08 13.82 5.04 3 5 C3 4.01 3 3.02 3 2 C2.01 1.67 1.02 1.34 0 1 C0 0.67 0 0.34 0 0 Z " fill="#B1BABC" transform="translate(189,274)"/>
<path d="M0 0 C12.47 0.08 24.93 0.18 37.4 0.29 C43.18 0.34 48.97 0.38 54.76 0.42 C60.34 0.46 65.92 0.51 71.51 0.56 C73.64 0.58 75.77 0.59 77.9 0.6 C80.89 0.62 83.87 0.65 86.85 0.68 C88.18 0.68 88.18 0.68 89.53 0.69 C90.75 0.7 90.75 0.7 91.99 0.72 C92.7 0.73 93.41 0.73 94.13 0.74 C96 1 96 1 99 3 C96.36 5.64 94.44 5.24 90.85 5.25 C89.56 5.24 89.56 5.24 88.24 5.23 C87.33 5.23 86.42 5.23 85.49 5.23 C82.48 5.23 79.47 5.21 76.46 5.2 C74.38 5.19 72.3 5.19 70.21 5.19 C64.73 5.18 59.24 5.16 53.75 5.14 C48.15 5.12 42.56 5.11 36.96 5.1 C25.97 5.08 14.99 5.04 4 5 C3.67 4.01 3.34 3.02 3 2 C2.01 1.67 1.02 1.34 0 1 C0 0.67 0 0.34 0 0 Z " fill="#B1BABC" transform="translate(16,274)"/>
<path d="M0 0 C0.33 0.66 0.66 1.32 1 2 C1.66 2 2.32 2 3 2 C4.19 4.37 4.12 5.8 4.11 8.45 C4.11 9.37 4.11 10.29 4.11 11.24 C4.11 12.24 4.1 13.23 4.1 14.26 C4.1 15.28 4.09 16.29 4.09 17.34 C4.09 20.6 4.08 23.86 4.06 27.12 C4.06 29.33 4.05 31.54 4.05 33.75 C4.04 39.16 4.02 44.58 4 50 C1.69 50.25 1.69 50.25 -1 50 C-3.72 47.67 -3.98 46.15 -4.36 42.58 C-4.36 41.23 -4.35 39.88 -4.33 38.52 C-4.33 37.8 -4.32 37.07 -4.32 36.33 C-4.32 34.79 -4.3 33.26 -4.28 31.72 C-4.25 29.4 -4.24 27.09 -4.23 24.77 C-4.14 6.02 -4.14 6.02 -3 2 C-2.01 1.34 -1.02 0.68 0 0 Z " fill="#006273" transform="translate(622,146)"/>
<path d="M0 0 C12.87 0 25.74 0 39 0 C39.99 1.98 40.98 3.96 42 6 C41.19 8.38 41.19 8.38 40 10 C39.05 9.84 38.09 9.68 37.11 9.51 C32.49 8.85 27.91 8.85 23.25 8.88 C22.4 8.87 21.55 8.87 20.68 8.86 C19.86 8.86 19.04 8.87 18.2 8.87 C17.1 8.87 17.1 8.87 15.97 8.87 C11.67 9.15 9.83 10.98 7 14 C7 12.02 7 10.04 7 8 C5.35 7.67 3.7 7.34 2 7 C2 6.34 2 5.68 2 5 C1.01 4.67 0.02 4.34 -1 4 C-0.67 2.68 -0.34 1.36 0 0 Z " fill="#006374" transform="translate(641,125)"/>
<path d="M0 0 C4.95 -0.07 9.9 -0.13 14.84 -0.16 C16.53 -0.18 18.21 -0.2 19.9 -0.23 C22.31 -0.26 24.73 -0.28 27.15 -0.29 C27.9 -0.31 28.66 -0.32 29.44 -0.34 C31.56 -0.34 31.56 -0.34 35 0 C35.66 0.99 36.32 1.98 37 3 C36.12 5.69 36.12 5.69 35 8 C33.68 8 32.36 8 31 8 C30.67 9.32 30.34 10.64 30 12 C29.65 11.53 29.3 11.05 28.94 10.56 C24.15 6.71 17.45 8.07 11.73 8.68 C10.83 8.78 9.93 8.89 9 9 C7.77 9.15 7.77 9.15 6.52 9.29 C4.68 9.52 2.84 9.76 1 10 C-0.62 8.38 -0.62 8.38 -2 6 C-1.09 2.85 -1.09 2.85 0 0 Z " fill="#006374" transform="translate(720,125)"/>
<path d="M0 0 C4.37 5.57 5.44 9.91 6.18 16.84 C6.33 18.15 6.33 18.15 6.49 19.48 C6.7 21.34 6.91 23.2 7.12 25.05 C7.65 29.85 8.21 34.64 8.76 39.44 C8.92 40.84 8.92 40.84 9.09 42.26 C9.96 49.81 10.98 57.33 12.11 64.85 C12.88 69.97 13.42 75.06 13.69 80.23 C13.79 80.82 13.9 81.4 14 82 C14.66 82.33 15.32 82.66 16 83 C15.67 85.97 15.34 88.94 15 92 C14.34 92 13.68 92 13 92 C11.41 86.83 10.39 81.78 9.63 76.43 C9.51 75.58 9.38 74.73 9.26 73.85 C7.39 60.95 5.64 48.04 3.88 35.12 C3.34 31.18 2.8 27.24 2.25 23.3 C1.92 20.87 1.59 18.44 1.26 16.01 C1.11 14.91 0.96 13.82 0.8 12.69 C0.67 11.73 0.54 10.77 0.4 9.79 C0.11 7.75 -0.24 5.73 -0.61 3.71 C-0.8 2.37 -0.8 2.37 -1 1 C-0.67 0.67 -0.34 0.34 0 0 Z " fill="#CDD7D8" transform="translate(139,171)"/>
<path d="M0 0 C1.17 0.95 2.34 1.91 3.5 2.88 C4.47 3.68 4.47 3.68 5.47 4.49 C5.97 4.99 6.48 5.49 7 6 C7 6.66 7 7.32 7 8 C7.66 8 8.32 8 9 8 C10.38 9.58 10.38 9.58 12 11.81 C16.32 17.54 21.15 22.73 26 28 C27.38 29.51 28.76 31.03 30.12 32.56 C30.68 33.18 31.24 33.8 31.82 34.44 C33 36 33 36 33 38 C33.66 38 34.32 38 35 38 C36.12 39.33 36.12 39.33 37.44 41.25 C40.16 45.01 43.15 48.43 46.31 51.81 C50.68 56.5 54.79 61.34 58.81 66.34 C61.03 69.03 63.33 71.61 65.69 74.19 C69.41 78.27 72.8 82.5 76 87 C75.34 87.66 74.68 88.32 74 89 C69.75 84.18 65.55 79.32 61.38 74.44 C56.56 68.81 51.72 63.21 46.87 57.62 C43.14 53.33 39.44 49.01 35.75 44.69 C32.33 40.68 28.86 36.71 25.31 32.81 C22.3 29.5 19.43 26.11 16.62 22.62 C12.82 17.91 8.81 13.44 4.63 9.06 C2.25 6.53 0.33 4.23 -1 1 C-0.67 0.67 -0.34 0.34 0 0 Z " fill="#006374" transform="translate(31,132)"/>
<path d="M0 0 C5.88 1.88 5.88 1.88 7 3 C7.59 9.22 7.59 9.22 5.35 12.18 C2.42 14.44 0.8 14.59 -2.88 14.75 C-4.09 14.81 -5.31 14.86 -6.56 14.92 C-15.37 15.12 -24.19 15.08 -33 15 C-35.05 11.28 -35.05 11.28 -34.62 8.75 C-34.42 8.17 -34.21 7.59 -34 7 C-33.67 7.33 -33.34 7.66 -33 8 C-30.55 8.09 -28.13 8.12 -25.68 8.1 C-24.59 8.1 -24.59 8.1 -23.47 8.09 C-21.12 8.09 -18.78 8.08 -16.44 8.06 C-14.85 8.06 -13.27 8.05 -11.68 8.05 C-7.79 8.04 -3.89 8.02 0 8 C0 5.36 0 2.72 0 0 Z " fill="#006374" transform="translate(838,156)"/>
<path d="M0 0 C4.35 0.43 6.47 3.27 9.19 6.38 C9.91 7.18 9.91 7.18 10.65 8.01 C14.48 12.32 18.12 16.78 21.74 21.27 C26.27 26.75 31.16 31.91 35.96 37.14 C40 41.66 40 41.66 40 45 C40.57 45.23 41.14 45.47 41.73 45.71 C44.53 47.3 46.2 49.2 48.31 51.62 C49.1 52.52 49.88 53.41 50.69 54.32 C52.13 55.99 53.57 57.66 55 59.33 C55.6 60.03 56.2 60.72 56.81 61.44 C57.6 62.36 57.6 62.36 58.39 63.31 C61.04 66.1 63.34 67.78 67 69 C67 69.66 67 70.32 67 71 C64.94 71.38 64.94 71.38 62 71 C59.46 69.23 57.27 67.11 55 65 C54.09 64.32 53.19 63.64 52.25 62.94 C49.76 60.79 48.62 58.85 47 56 C42.01 48.86 36.6 42.07 29.88 36.5 C26.46 33.62 24.42 30.72 22.23 26.86 C20.3 23.95 17.72 22.15 15 20 C15 19.34 15 18.68 15 18 C13.38 16.44 13.38 16.44 11.31 14.81 C6.36 10.61 2.64 6 0 0 Z " fill="#CED8D9" transform="translate(90,206)"/>
<path d="M0 0 C5.06 2.64 8.54 5.24 12.38 9.56 C13.07 10.34 13.07 10.34 13.77 11.13 C15.2 12.74 16.6 14.37 18 16 C18.45 16.53 18.91 17.05 19.37 17.6 C27 26.53 27 26.53 27 29 C27.54 29.19 28.08 29.39 28.63 29.59 C32.08 31.64 34.32 34.5 36.88 37.56 C37.67 38.51 37.67 38.51 38.48 39.47 C47.52 50.32 47.52 50.32 49 54 C48.64 56.75 48.64 56.75 48 59 C46.68 59 45.36 59 44 59 C42.25 57 42.25 57 41 55 C41.99 54.34 42.98 53.68 44 53 C35.4 42.31 26.48 31.9 17.25 21.75 C13.34 17.45 9.67 12.98 6.04 8.45 C4.04 5.97 4.04 5.97 1.74 3.8 C0 2 0 2 0 0 Z " fill="#E4EEEE" transform="translate(71,220)"/>
<path d="M0 0 C1.32 0.66 2.64 1.32 4 2 C4.03 4.81 4.05 7.62 4.06 10.44 C4.07 11.24 4.08 12.04 4.09 12.87 C4.1 14.91 4.05 16.96 4 19 C3 20 3 20 0.11 20.12 C-1.19 20.12 -2.48 20.12 -3.81 20.11 C-4.88 20.11 -4.88 20.11 -5.97 20.11 C-8.34 20.11 -10.7 20.11 -13.07 20.1 C-14.7 20.1 -16.34 20.09 -17.97 20.09 C-22.28 20.09 -26.6 20.08 -30.91 20.07 C-35.31 20.06 -39.7 20.05 -44.1 20.05 C-52.73 20.04 -61.37 20.02 -70 20 C-70 19.67 -70 19.34 -70 19 C-53.5 19 -37 19 -20 19 C-20 18.34 -20 17.68 -20 17 C-15.94 15.65 -11.97 15.62 -7.71 15.38 C-4.86 15.26 -4.86 15.26 -3 13 C-2.61 10.4 -2.61 10.4 -2.5 7.5 C-2.22 2.22 -2.22 2.22 0 0 Z " fill="#006374" transform="translate(874,163)"/>
<path d="M0 0 C4.54 -0.02 9.08 -0.04 13.62 -0.05 C15.16 -0.06 16.71 -0.07 18.25 -0.08 C20.47 -0.09 22.69 -0.09 24.9 -0.1 C25.6 -0.1 26.29 -0.11 27.01 -0.11 C28.67 -0.11 30.34 -0.06 32 0 C33 1 33 1 33.1 2.85 C33.07 4.9 33.03 6.95 33 9 C29.28 9.2 28.23 9.15 25 7 C22.63 6.7 22.63 6.7 20 6.73 C19.03 6.71 18.06 6.69 17.06 6.66 C15.02 6.64 12.98 6.62 10.94 6.61 C9.48 6.57 9.48 6.57 8 6.54 C7.11 6.53 6.23 6.52 5.31 6.51 C3 6 3 6 1.19 4.09 C0 2 0 2 0 0 Z " fill="#006374" transform="translate(845,190)"/>
<path d="M0 0 C1.2 -0.01 1.2 -0.01 2.43 -0.01 C8.26 0 8.26 0 10.5 1.12 C11 2.61 11 2.61 11.5 4.12 C12.16 4.78 12.82 5.44 13.5 6.12 C7.5 7.51 1.56 7.31 -4.56 7.31 C-5.75 7.32 -6.93 7.34 -8.15 7.35 C-9.86 7.35 -9.86 7.35 -11.6 7.36 C-13.15 7.36 -13.15 7.36 -14.74 7.37 C-17.51 7.12 -19.14 6.55 -21.5 5.12 C-20.75 3.17 -20.75 3.17 -19.5 1.12 C-13.66 -0.91 -6.16 0.04 0 0 Z " fill="#006374" transform="translate(828.5,221.875)"/>
<path d="M0 0 C0.99 0.33 1.98 0.66 3 1 C3 1.99 3 2.98 3 4 C3.66 4 4.32 4 5 4 C5.18 13.73 5.34 23.45 5.49 33.18 C5.57 37.7 5.64 42.21 5.72 46.73 C5.8 51.09 5.87 55.44 5.94 59.8 C5.96 61.47 5.99 63.13 6.03 64.79 C6.07 67.12 6.11 69.45 6.14 71.77 C6.15 72.47 6.17 73.16 6.19 73.87 C6.22 77.5 6.08 78.88 4 82 C3.34 81.67 2.68 81.34 2 81 C1.99 80.04 1.98 79.09 1.97 78.1 C1.87 69.1 1.77 60.09 1.66 51.09 C1.61 46.46 1.55 41.83 1.5 37.2 C1.45 32.73 1.4 28.26 1.35 23.8 C1.33 22.09 1.31 20.39 1.29 18.68 C1.27 16.3 1.24 13.91 1.21 11.52 C1.2 10.82 1.19 10.11 1.19 9.38 C1.14 6.12 1 3.13 0 0 Z " fill="#CFDADB" transform="translate(290,34)"/>
<path d="M0 0 C6.74 0.93 10.59 5.09 14.81 10.18 C18.39 15.14 19.78 18.9 20 25 C18.68 25 17.36 25 16 25 C14.54 23.06 14.54 23.06 13.19 20.44 C9.79 14.35 5.8 9.87 0 6 C0.19 5.38 0.37 4.76 0.56 4.12 C1.24 1.96 1.24 1.96 0 0 Z " fill="#006273" transform="translate(853,130)"/>
<path d="M0 0 C4.52 -0.07 9.04 -0.13 13.56 -0.16 C15.1 -0.18 16.64 -0.2 18.18 -0.23 C20.39 -0.26 22.6 -0.28 24.8 -0.29 C25.84 -0.32 25.84 -0.32 26.89 -0.34 C28.84 -0.34 28.84 -0.34 32 0 C34 3 34 3 33.75 5.06 C33 7 33 7 31 9 C28.5 8.76 27.35 8.41 25.7 6.48 C23.36 4.44 21.75 4.57 18.68 4.49 C17.13 4.44 17.13 4.44 15.56 4.38 C13.95 4.35 13.95 4.35 12.31 4.31 C11.23 4.28 10.15 4.24 9.03 4.21 C6.35 4.13 3.68 4.06 1 4 C1.33 3.01 1.66 2.02 2 1 C1.34 0.67 0.68 0.34 0 0 Z " fill="#006374" transform="translate(332,95)"/>
<path d="M0 0 C0.33 0 0.66 0 1 0 C1.18 1.17 1.36 2.34 1.55 3.54 C1.8 5.09 2.06 6.64 2.31 8.19 C2.43 8.96 2.55 9.73 2.67 10.52 C3.4 14.9 4.18 18.42 7 22 C7.99 22.33 8.98 22.66 10 23 C9.69 25.96 9.38 28.92 9.06 31.88 C8.93 33.14 8.93 33.14 8.8 34.43 C8.67 35.63 8.67 35.63 8.54 36.87 C8.46 37.61 8.38 38.35 8.3 39.12 C8 41 8 41 7 43 C6.01 42.67 5.02 42.34 4 42 C3.82 40.42 3.82 40.42 3.63 38.81 C3.46 37.35 3.29 35.89 3.12 34.44 C3.04 33.67 2.95 32.9 2.86 32.11 C2.42 28.36 1.96 24.62 1.42 20.88 C0.42 13.86 -0.3 7.1 0 0 Z " fill="#E5EEEE" transform="translate(148,211)"/>
<path d="M0 0 C7.59 0 15.18 0 23 0 C23.66 1.65 24.32 3.3 25 5 C20.49 6.28 16.16 6.18 11.5 6.19 C10.22 6.21 10.22 6.21 8.91 6.22 C7.67 6.23 7.67 6.23 6.41 6.23 C5.66 6.23 4.91 6.24 4.13 6.24 C1.72 5.97 0.1 5.2 -2 4 C-1.34 2.68 -0.68 1.36 0 0 Z " fill="#006374" transform="translate(542,223)"/>
<path d="M0 0 C2.34 2.34 2.38 3.2 2.82 6.4 C2.94 7.29 3.06 8.17 3.19 9.09 C3.31 10.03 3.44 10.97 3.56 11.94 C3.69 12.89 3.82 13.84 3.96 14.82 C4.74 20.61 5.39 26.39 5.69 32.23 C5.79 32.82 5.9 33.4 6 34 C6.66 34.33 7.32 34.66 8 35 C7.67 37.97 7.34 40.94 7 44 C6.34 44 5.68 44 5 44 C3.31 38.54 2.26 33.15 1.44 27.5 C1.31 26.63 1.18 25.76 1.05 24.86 C-1.94 3.88 -1.94 3.88 0 0 Z " fill="#C7D2D3" transform="translate(147,219)"/>
<path d="M0 0 C2.6 -0.08 5.21 -0.14 7.81 -0.19 C8.55 -0.21 9.29 -0.24 10.05 -0.26 C15.53 -0.34 15.53 -0.34 18.01 1.45 C19 3 19 3 19 4 C18.41 3.99 17.82 3.98 17.21 3.97 C12.3 4.09 12.3 4.09 8.29 6.62 C6.75 8.76 6.75 8.76 5 12 C1.94 10.98 0.85 10.56 -1 8 C-1.25 4.9 -1.4 2.8 0 0 Z " fill="#006374" transform="translate(396,95)"/>
<path d="M0 0 C6.6 0 13.2 0 20 0 C20.66 1.65 21.32 3.3 22 5 C18.17 6.28 14.55 6.18 10.56 6.19 C9.8 6.2 9.03 6.21 8.25 6.22 C1.32 6.24 1.32 6.24 -2 4 C-1.34 2.68 -0.68 1.36 0 0 Z " fill="#006374" transform="translate(609,223)"/>
<path d="M0 0 C2.38 1.12 2.38 1.12 4 3 C4.25 6.19 4.25 6.19 4 9 C3.01 9.5 3.01 9.5 2 10 C-0.06 9.31 -0.06 9.31 -2 8 C-2.33 6.68 -2.66 5.36 -3 4 C-3.99 6.97 -4.98 9.94 -6 13 C-10 12 -10 12 -11 11 C-10.65 3.77 -10.65 3.77 -8.31 1 C-5.3 -0.3 -3.26 -0.41 0 0 Z " fill="#006273" transform="translate(419,146)"/>
<path d="M0 0 C0 3 0 3 -2 6 C-2.41 6.92 -2.41 6.92 -2.82 7.85 C-4.42 10.77 -6.54 12.94 -8.81 15.38 C-11.62 18.4 -14.4 21.41 -17 24.62 C-19 27 -19 27 -21 28 C-28.22 28.58 -28.22 28.58 -31.5 26.12 C-33 24 -33 24 -33 22 C-30.53 23.15 -28.95 24.05 -27 26 C-24.43 26.65 -24.43 26.65 -22 27 C-21.9 26.4 -21.79 25.81 -21.69 25.19 C-20.88 22.63 -19.97 21.72 -18 19.94 C-14.01 16.14 -10.63 11.96 -7.21 7.65 C-4.95 4.93 -2.53 2.46 0 0 Z " fill="#F1F7F8" transform="translate(179,250)"/>
<path d="M0 0 C4.99 1.48 7.79 4.38 11.32 8 C12.21 8.88 12.21 8.88 13.1 9.78 C14.34 11.03 15.57 12.27 16.8 13.52 C18.68 15.43 20.58 17.34 22.47 19.24 C23.67 20.45 24.87 21.66 26.07 22.87 C26.92 23.72 26.92 23.72 27.79 24.59 C30.12 26.97 32.15 29.22 34 32 C33.94 34.5 33.94 34.5 33 37 C30.69 38.88 30.69 38.88 28 40 C25.69 39.69 25.69 39.69 24 39 C24.33 38.34 24.66 37.68 25 37 C27.06 36.38 27.06 36.38 29 36 C28.67 35.34 28.34 34.68 28 34 C28.99 34 29.98 34 31 34 C29.65 29.95 27.94 27.58 24.88 24.62 C24.06 23.84 23.25 23.05 22.42 22.25 C20.37 20.35 18.3 18.5 16.19 16.69 C12.46 13.49 8.97 10.09 5.5 6.62 C4.96 6.09 4.42 5.55 3.86 5 C0 1.12 0 1.12 0 0 Z " fill="#E3ECEC" transform="translate(259,241)"/>
<path d="M0 0 C3.27 -0.03 6.54 -0.05 9.81 -0.06 C10.74 -0.07 11.67 -0.08 12.63 -0.09 C13.52 -0.09 14.41 -0.09 15.33 -0.1 C16.57 -0.11 16.57 -0.11 17.82 -0.11 C20 0 20 0 23 1 C22.25 2.94 22.25 2.94 21 5 C17.56 6.27 14.07 6.17 10.44 6.19 C9.3 6.2 8.17 6.22 7 6.23 C4 6 4 6 1 4 C0.31 1.88 0.31 1.88 0 0 Z " fill="#006374" transform="translate(565,165)"/>
<path d="M0 0 C6.71 0.01 13.27 0.05 19.9 1.13 C19.9 1.46 19.9 1.79 19.9 2.13 C17.92 2.46 15.94 2.79 13.9 3.13 C15.22 3.79 16.54 4.45 17.9 5.13 C12.36 7.06 6.77 8.09 0.9 7.13 C-0.89 5.74 -0.89 5.74 -2.1 4.13 C-2.1 3.47 -2.1 2.81 -2.1 2.13 C-2.76 1.8 -3.42 1.47 -4.1 1.13 C-3.1 0.13 -3.1 0.13 0 0 Z " fill="#006374" transform="translate(565.09765625,122.8671875)"/>
<path d="M0 0 C4.23 2.16 7.3 4.16 10.5 7.69 C12.9 10.24 14.44 11.46 17.94 11.94 C19.45 11.97 19.45 11.97 21 12 C22.18 15.67 22.07 19.17 22 23 C17.62 21.37 15.04 18.07 12 14.69 C11.48 14.12 10.96 13.55 10.42 12.96 C8.1 10.41 5.88 7.85 3.75 5.14 C2.18 2.92 2.18 2.92 0 2 C0 1.34 0 0.68 0 0 Z " fill="#076978" transform="translate(130,249)"/>
<path d="M0 0 C0 4 -1.36 4.81 -4.06 7.69 C-4.89 8.58 -5.72 9.48 -6.57 10.4 C-7.37 11.26 -8.18 12.12 -9 13 C-10.13 14.26 -11.26 15.53 -12.38 16.81 C-12.93 17.44 -13.48 18.07 -14.05 18.72 C-15.62 20.55 -17.16 22.39 -18.7 24.25 C-19.18 24.82 -19.67 25.4 -20.16 25.99 C-21.11 27.14 -22.06 28.28 -23.01 29.43 C-25.75 32.72 -28.57 35.45 -32 38 C-32.66 37.34 -33.32 36.68 -34 36 C-33.15 35.08 -32.29 34.17 -31.41 33.23 C-30.29 32.03 -29.18 30.83 -28.06 29.62 C-27.5 29.02 -26.93 28.42 -26.35 27.8 C-25.55 26.93 -25.55 26.93 -24.72 26.04 C-24.23 25.5 -23.73 24.97 -23.22 24.42 C-21.9 23 -21.9 23 -21 21 C-20.29 20.62 -19.58 20.24 -18.85 19.84 C-14.95 17.32 -12.34 14.05 -9.38 10.5 C-8.24 9.16 -7.1 7.81 -5.96 6.47 C-5.46 5.88 -4.97 5.28 -4.45 4.67 C-3.03 3.04 -1.55 1.51 0 0 Z " fill="#EAF2F2" transform="translate(283,132)"/>
<path d="M0 0 C2.6 -0.08 5.21 -0.14 7.81 -0.19 C8.55 -0.21 9.29 -0.24 10.05 -0.26 C15.53 -0.34 15.53 -0.34 18.01 1.45 C19 3 19 3 19 4 C18.31 4.05 17.63 4.1 16.92 4.15 C16.02 4.22 15.12 4.3 14.19 4.38 C13.29 4.44 12.4 4.51 11.48 4.59 C8.76 4.87 8.76 4.87 6 7 C2.68 6.68 1.39 6.39 -1 4 C-0.62 1.88 -0.62 1.88 0 0 Z " fill="#006374" transform="translate(469,95)"/>
<path d="M0 0 C4.63 1.42 6.98 3.73 10.19 7.31 C10.66 7.83 11.12 8.35 11.61 8.89 C16.73 14.67 21.39 20.81 26 27 C23 27 23 27 20.4 24.54 C19.38 23.43 18.37 22.31 17.38 21.19 C16.85 20.6 16.32 20.02 15.77 19.42 C10.22 13.22 4.62 6.93 0 0 Z " fill="#006273" transform="translate(106,221)"/>
<path d="M0 0 C4.01 1.37 6.95 3.03 10 6 C11.31 9.25 11.31 9.25 12 12 C10.26 12.7 10.26 12.7 8 13 C5.89 11.74 5.89 11.74 3.81 9.88 C3.12 9.27 2.42 8.67 1.71 8.05 C-0.27 5.67 -0.74 4.06 -1 1 C-0.67 0.67 -0.34 0.34 0 0 Z " fill="#006273" transform="translate(801,195)"/>
<path d="M0 0 C2.41 2.41 2.6 3.67 3 7 C2.56 9.31 2.56 9.31 2 11 C-0.19 10.02 -1.76 9.29 -3.31 7.44 C-5.91 5.22 -8.68 5.31 -12 5 C-12.33 3.68 -12.66 2.36 -13 1 C-10.88 0.78 -8.75 0.57 -6.62 0.38 C-5.44 0.26 -4.26 0.14 -3.04 0.02 C-2.04 0.02 -1.03 0.01 0 0 Z " fill="#006273" transform="translate(435,94)"/>
<path d="M0 0 C2.75 -0.25 2.75 -0.25 6 0 C6.64 0.68 7.28 1.36 7.94 2.06 C8.62 2.7 9.3 3.34 10 4 C13.35 3.81 13.35 3.81 17 3 C19.76 2.76 22.2 2.81 25 3 C26.73 4.52 26.73 4.52 28 6 C23.71 6.03 19.42 6.05 15.12 6.06 C13.9 6.07 12.68 6.08 11.42 6.09 C9.67 6.09 9.67 6.09 7.88 6.1 C6.26 6.11 6.26 6.11 4.61 6.11 C2 6 2 6 0 5 C0 3.35 0 1.7 0 0 Z " fill="#006273" transform="translate(350,217)"/>
<path d="M0 0 C2.06 -0.03 4.12 -0.05 6.19 -0.06 C7.34 -0.07 8.48 -0.09 9.67 -0.1 C12.59 -0.01 15.16 0.32 18 1 C16.34 3.29 15.38 4.56 13 6 C9.3 6.44 5.71 6.29 2 6 C1.34 4.68 0.68 3.36 0 2 C0.66 2 1.32 2 2 2 C1.34 1.34 0.68 0.68 0 0 Z " fill="#006273" transform="translate(813,123)"/>
<path d="M0 0 C1.16 -0.01 2.33 -0.03 3.52 -0.04 C6.62 0.19 6.62 0.19 9.62 2.19 C9.62 2.85 9.62 3.51 9.62 4.19 C3.67 5.34 -2.34 5.73 -8.38 6.19 C-7.24 -0.16 -6.44 0.04 0 0 Z " fill="#006273" transform="translate(571.375,142.8125)"/>
<path d="M0 0 C1.98 -0.03 3.96 -0.05 5.94 -0.06 C7.04 -0.07 8.14 -0.09 9.28 -0.1 C12 0 12 0 13 1 C13.04 3 13.04 5 13 7 C10.4 7.95 8.69 8.3 6.11 7.18 C4.37 6.17 2.68 5.09 1 4 C1.33 3.01 1.66 2.02 2 1 C1.34 0.67 0.68 0.34 0 0 Z " fill="#006374" transform="translate(497,95)"/>
<path d="M0 0 C4.76 0.38 6.92 1.73 10.88 4.31 C7.88 5.31 7.88 5.31 4.88 4.31 C4.88 4.97 4.88 5.63 4.88 6.31 C-1.18 7.29 -1.18 7.29 -3.12 7.31 C-3.78 6.65 -4.45 5.99 -5.12 5.31 C-4.51 1.28 -4.19 0.42 0 0 Z " fill="#006374" transform="translate(574.125,176.6875)"/>
<path d="M0 0 C2.97 0.99 5.94 1.98 9 3 C9.37 8.54 9.37 8.54 7.5 10.88 C6.76 11.43 6.76 11.43 6 12 C1.77 9.09 1.77 9.09 0 7 C-0.38 3.19 -0.38 3.19 0 0 Z " fill="#006273" transform="translate(627,201)"/>
<path d="M0 0 C1.32 0.66 2.64 1.32 4 2 C3 5.69 2.34 6.79 -1 8.81 C-4 10 -4 10 -6 10 C-6.33 8.68 -6.66 7.36 -7 6 C-4.69 4.02 -2.38 2.04 0 0 Z " fill="#006374" transform="translate(532,133)"/>
<path d="M0 0 C0.33 0.66 0.66 1.32 1 2 C3.53 2.66 3.53 2.66 6 3 C6.12 5.88 6.12 5.88 6 9 C5.34 9.66 4.68 10.32 4 11 C0.46 10.46 0.46 10.46 -1 9 C-1.24 2.47 -1.24 2.47 0 0 Z " fill="#006374" transform="translate(386,144)"/>
<path d="M0 0 C5.28 0 10.56 0 16 0 C16.33 1.32 16.66 2.64 17 4 C16.48 3.84 15.97 3.67 15.44 3.5 C12.27 2.85 9.23 2.94 6 3 C6.33 3.66 6.66 4.32 7 5 C4.36 5 1.72 5 -1 5 C-0.67 3.35 -0.34 1.7 0 0 Z " fill="#006273" transform="translate(814,143)"/>
<path d="M0 0 C0 4.12 -2.19 5.79 -4.88 8.62 C-5.34 9.13 -5.8 9.63 -6.27 10.15 C-9.62 13.76 -10.88 14.91 -15.88 15.31 C-19.09 15.28 -19.81 15.14 -22.5 13.12 C-24 11 -24 11 -24 9 C-21.53 10.15 -19.95 11.05 -18 13 C-15.71 13.71 -15.71 13.71 -13 13 C-10.46 11.08 -8.35 8.82 -6.19 6.5 C-5.59 5.88 -4.99 5.26 -4.38 4.62 C-2.91 3.09 -1.45 1.55 0 0 Z " fill="#E6EFEF" transform="translate(170,263)"/>
<path d="M0 0 C0.99 0 1.98 0 3 0 C3.33 2.64 3.66 5.28 4 8 C4.66 8 5.32 8 6 8 C5.67 8.99 5.34 9.98 5 11 C2.62 10.75 2.62 10.75 0 10 C-1.91 7.57 -2.05 6.39 -1.69 3.31 C-1 1 -1 1 0 0 Z " fill="#026474" transform="translate(375,158)"/>
<path d="M0 0 C0.33 0.33 0.66 0.66 1 1 C4.1 1.06 7.18 1.02 10.28 0.96 C14 0.92 17.39 1.1 21 2 C21 2.33 21 2.66 21 3 C12.42 3 3.84 3 -5 3 C-5.33 3.66 -5.66 4.32 -6 5 C-6 3.35 -6 1.7 -6 0 C-3.5 -1.25 -2.6 -0.84 0 0 Z " fill="#006273" transform="translate(684,220)"/>
<path d="M0 0 C0.66 0 1.32 0 2 0 C2 0.66 2 1.32 2 2 C2.99 2.33 3.98 2.66 5 3 C5.62 5.31 5.62 5.31 6 8 C5.01 9.49 5.01 9.49 4 11 C3.01 11 2.02 11 1 11 C-1.04 6.93 -1.03 4.41 0 0 Z " fill="#006374" transform="translate(456,158)"/>
<path d="M0 0 C1.49 0.99 1.49 0.99 3 2 C5.11 2.63 5.11 2.63 7 3 C7 4.98 7 6.96 7 9 C5.35 9.33 3.7 9.66 2 10 C-0.09 6.6 -0.18 3.95 0 0 Z " fill="#006374" transform="translate(459,143)"/>
<path d="M0 0 C2.5 1.12 2.5 1.12 5 3 C5.31 6.19 5.31 6.19 5 9 C4.01 9.5 4.01 9.5 3 10 C0.88 9.06 0.88 9.06 -1 8 C-1 6.35 -1 4.7 -1 3 C-1.66 2.67 -2.32 2.34 -3 2 C-2.01 1.34 -1.02 0.68 0 0 Z " fill="#076778" transform="translate(418,146)"/>
<path d="M0 0 C0.99 0.33 1.98 0.66 3 1 C3.33 2.98 3.66 4.96 4 7 C2.02 7.99 2.02 7.99 0 9 C-2 7.81 -2 7.81 -4 6 C-4.25 3.31 -4.25 3.31 -4 1 C-3.01 1 -2.02 1 -1 1 C-0.67 0.67 -0.34 0.34 0 0 Z " fill="#006273" transform="translate(424,161)"/>
<path d="M0 0 C2.85 2.85 2.46 5.8 2.62 9.62 C2.68 10.68 2.68 10.68 2.74 11.77 C2.84 13.51 2.92 15.25 3 17 C2.01 17 1.02 17 0 17 C-0.19 14.54 -0.38 12.08 -0.56 9.62 C-0.62 8.93 -0.67 8.23 -0.73 7.51 C-1.11 2.23 -1.11 2.23 0 0 Z " fill="#CAD4D5" transform="translate(147,219)"/>
<path d="M0 0 C0.33 0.66 0.66 1.32 1 2 C3.02 3.13 3.02 3.13 5 4 C4.81 6.38 4.81 6.38 4 9 C1.44 10.31 1.44 10.31 -1 11 C-1 10.01 -1 9.02 -1 8 C-1.03 6.21 -1.03 6.21 -1.06 4.38 C-1 1 -1 1 0 0 Z " fill="#016374" transform="translate(383,160)"/>
<path d="M0 0 C0.66 0.66 1.32 1.32 2 2 C2.66 1.34 3.32 0.68 4 0 C4 1.98 4 3.96 4 6 C4.66 6 5.32 6 6 6 C5.34 7.65 4.68 9.3 4 11 C2.06 10.5 2.06 10.5 0 9 C-0.76 6.27 -0.86 3.87 -1 1 C-0.67 0.67 -0.34 0.34 0 0 Z " fill="#026475" transform="translate(448,159)"/>
<path d="M0 0 C1.49 0.99 1.49 0.99 3 2 C3.99 2 4.98 2 6 2 C7 3 7 3 7.06 6.06 C7.04 7.03 7.02 8 7 9 C5.68 9.33 4.36 9.66 3 10 C3 9.34 3 8.68 3 8 C2.01 7.34 1.02 6.68 0 6 C-0.19 2.88 -0.19 2.88 0 0 Z " fill="#006374" transform="translate(462,127)"/>
<path d="M0 0 C0.33 0.99 0.66 1.98 1 3 C0.67 3.66 0.34 4.32 0 5 C-3.3 5 -6.6 5 -10 5 C-9 2 -9 2 -7.25 0.81 C-4.7 -0.11 -2.69 -0.15 0 0 Z " fill="#006273" transform="translate(558,152)"/>
<path d="M0 0 C1.49 0.99 1.49 0.99 3 2 C3.99 2 4.98 2 6 2 C6 3.98 6 5.96 6 8 C5.01 8.33 4.02 8.66 3 9 C3 8.34 3 7.68 3 7 C2.01 7 1.02 7 0 7 C-0.38 5.01 -0.71 3.01 -1 1 C-0.67 0.67 -0.34 0.34 0 0 Z " fill="#006374" transform="translate(466,110)"/>
<path d="M0 0 C0.87 0.34 0.87 0.34 1.75 0.69 C1.75 1.68 1.75 2.67 1.75 3.69 C-2.59 7.69 -2.59 7.69 -5.25 7.69 C-5.58 6.04 -5.91 4.39 -6.25 2.69 C-2.8 -0.39 -2.8 -0.39 0 0 Z " fill="#006273" transform="translate(561.25,183.3125)"/>
<path d="M0 0 C0.33 0.99 0.66 1.98 1 3 C-0.94 5.69 -0.94 5.69 -3 8 C-4.98 7.34 -6.96 6.68 -9 6 C-9 5.34 -9 4.68 -9 4 C-7.61 3.57 -7.61 3.57 -6.19 3.12 C-2.9 2.11 -2.9 2.11 0 0 Z " fill="#016374" transform="translate(840,199)"/>
<path d="M0 0 C2.02 1.21 2.02 1.21 4 3 C4.17 5.26 4.17 5.26 3.75 7.69 C3.62 8.5 3.49 9.3 3.36 10.14 C3.18 11.06 3.18 11.06 3 12 C2.34 12 1.68 12 1 12 C-0.26 9.48 -0.1 7.69 -0.06 4.88 C-0.05 3.96 -0.04 3.05 -0.04 2.12 C-0.02 1.42 -0.01 0.72 0 0 Z " fill="#CAD5D6" transform="translate(151,251)"/>
<path d="M0 0 C0.66 0 1.32 0 2 0 C2 0.66 2 1.32 2 2 C2.66 2 3.32 2 4 2 C3.67 3.65 3.34 5.3 3 7 C1.06 7.56 1.06 7.56 -1 8 C-2 7 -2 7 -2.19 4.56 C-2 2 -2 2 0 0 Z " fill="#006273" transform="translate(407,165)"/>
<path d="M0 0 C0 3 0 3 -2.62 5.7 C-3.74 6.7 -4.87 7.7 -6 8.69 C-6.57 9.2 -7.14 9.71 -7.73 10.24 C-9.15 11.5 -10.57 12.75 -12 14 C-12.66 13.67 -13.32 13.34 -14 13 C-7.09 4.62 -7.09 4.62 -2 2 C-1.34 1.34 -0.68 0.68 0 0 Z " fill="#EFF5F6" transform="translate(194,235)"/>
<path d="M0 0 C1.98 0.5 1.98 0.5 4 1 C4.33 2.65 4.66 4.3 5 6 C3.68 6.33 2.36 6.66 1 7 C1 5.68 1 4.36 1 3 C0.01 3.5 0.01 3.5 -1 4 C-0.67 2.68 -0.34 1.36 0 0 Z " fill="#006273" transform="translate(768,159)"/>
<path d="M0 0 C1.32 0 2.64 0 4 0 C4.04 1.67 4.04 3.33 4 5 C3 6 3 6 0 7 C-1 6 -1 6 -1.12 3.5 C-1 1 -1 1 0 0 Z " fill="#006273" transform="translate(445,145)"/>
<path d="M0 0 C-0.66 1.32 -1.32 2.64 -2 4 C-1.01 4.33 -0.02 4.66 1 5 C-2.37 4.45 -4.08 3.95 -7 2 C-7 1.34 -7 0.68 -7 0 C-3.87 -1.04 -3.01 -0.93 0 0 Z " fill="#006273" transform="translate(787,214)"/>
</svg>
